<svg width="640" height="760" viewBox="0 0 640 760" fill="none" xmlns="http://www.w3.org/2000/svg">
  <rect width="640" height="760" rx="64" fill="#090019"/>
  <circle cx="318" cy="356" r="252" fill="#22d3ee" opacity=".2"/>
  <path d="M322 88c90 24 144 90 147 183-52 0-100-18-144-53-34 38-77 61-130 71-5-98 37-166 127-201Z" fill="#111827"/>
  <path d="M336 89c59 7 108 36 147 88-35 10-77 7-124-9-29-10-43-37-42-79h19Z" fill="#ec4899"/>
  <circle cx="320" cy="286" r="101" fill="#f8d1c4"/>
  <circle cx="274" cy="263" r="10" fill="#111827"/>
  <circle cx="369" cy="263" r="10" fill="#111827"/>
  <path d="M269 312c31 25 68 25 110-2" stroke="#7c2d12" stroke-width="10" stroke-linecap="round"/>
  <path d="M187 394h264l57 270H132l55-270Z" fill="#ec4899"/>
  <path d="M251 423h140l34 199H216l35-199Z" fill="#020617"/>
  <text x="321" y="514" text-anchor="middle" font-family="Arial Black, Arial" font-size="47" fill="#facc15">SLAY</text>
  <path d="M450 410c37 15 70 38 100 68" stroke="#f8d1c4" stroke-width="46" stroke-linecap="round"/>
  <path d="M489 429l91-94" stroke="#facc15" stroke-width="21" stroke-linecap="round"/>
  <path d="M199 410c-42 24-75 54-99 91" stroke="#f8d1c4" stroke-width="46" stroke-linecap="round"/>
  <path d="M259 58l22 30 38-49 38 49 22-30 7 64H252l7-64Z" fill="#facc15"/>
</svg>
