<svg width="320" height="320" viewBox="0 0 320 320" fill="none" xmlns="http://www.w3.org/2000/svg">
  <rect width="320" height="320" rx="80" fill="#120026"/>
  <circle cx="160" cy="156" r="118" fill="#ec4899" opacity=".28"/>
  <circle cx="194" cy="177" r="100" fill="#22d3ee" opacity=".18"/>
  <path d="M160 47c67 12 103 54 105 119-30-1-65-16-104-43-30 30-65 48-105 54 0-70 37-116 104-130Z" fill="#111827"/>
  <path d="M208 55c35 11 61 36 78 75-27 2-55-4-84-19-23-12-34-31-33-57 11-1 24-1 39 1Z" fill="#ec4899"/>
  <path d="M141 58c3 39-3 70-18 94-16 25-41 43-75 54 2-69 33-118 93-148Z" fill="#22d3ee"/>
  <circle cx="160" cy="162" r="70" fill="#f8d1c4"/>
  <path d="M121 180c22 18 48 18 78-1" stroke="#7c2d12" stroke-width="8" stroke-linecap="round"/>
  <circle cx="128" cy="146" r="8" fill="#111827"/>
  <circle cx="193" cy="146" r="8" fill="#111827"/>
  <path d="M103 245h114l21 68H83l20-68Z" fill="#ec4899"/>
  <path d="M134 248h54l10 45h-75l11-45Z" fill="#020617"/>
  <path d="M131 28l18 22 19-29 20 29 18-22 4 48h-83l4-48Z" fill="#facc15"/>
</svg>
